# xmcd
#
# Track frame offsets:
# 150
# 18312
# 47104
# 62594
# 72005
# 90732
# 106308
# 123568
# 140182
# 154284
# 169435
# 185170
# 203789
# 221663
# 236786
# 249476
# 265058
# 278512
# 296977
# 311134
# 328043
# 343130
#
# Disc length: 4770 seconds
#
#
# Revision: 0
# Processed by: cddbd v1.5.2PL0 Copyright (c) Steve Scherf et al.
# Submitted via: FreeRIP 2.945 
#
DISCID=6412a016
DTITLE=Various Artist - Westerbro LineDance - Beginner 2
DYEAR=2008
DGENRE=Country
TTITLE0=Baby likes to rock it
TTITLE1=LineDance fever
TTITLE2=The Bellamy Brothers - I need more of you
TTITLE3=Your good girls gonna go bad
TTITLE4=Live laugh love
TTITLE5=Hooked on country
TTITLE6=I wanna die
TTITLE7=Vincero
TTITLE8=Kiss me honey
TTITLE9=Heart is right
TTITLE10=God Blessed Texas
TTITLE11=Pop that booty
TTITLE12=Mariana Mambo
TTITLE13=The only way out
TTITLE14=The boy from Baltimore
TTITLE15=Irish Stew
TTITLE16=Heather Myles - Nashville's gone country
TTITLE17=Poor boy blues
TTITLE18=Knock it out
TTITLE19=Leaving of liverpool
TTITLE20=There's no getting over me
TTITLE21=I love a rainy night
EXTD=
EXTT0=
EXTT1=
EXTT2=
EXTT3=
EXTT4=
EXTT5=
EXTT6=
EXTT7=
EXTT8=
EXTT9=
EXTT10=
EXTT11=
EXTT12=
EXTT13=
EXTT14=
EXTT15=
EXTT16=
EXTT17=
EXTT18=
EXTT19=
EXTT20=
EXTT21=
PLAYORDER=
